STARTFONT 2.1
FONT -FontForge-Monaco-Medium-R-Normal--12-120-72-72-P-59-ISO10646-1
SIZE 12 72 72
FONTBOUNDINGBOX 9 15 -1 -4
COMMENT "Generated by fontforge, http://fontforge.sourceforge.net"
STARTPROPERTIES 23
FOUNDRY "FontForge"
FAMILY_NAME "Monaco"
WEIGHT_NAME "Bold"
SLANT "R"
SETWIDTH_NAME "Normal"
ADD_STYLE_NAME ""
PIXEL_SIZE 12
POINT_SIZE 120
RESOLUTION_X 72
RESOLUTION_Y 72
SPACING "P"
AVERAGE_WIDTH 60
CHARSET_REGISTRY "ISO10646"
CHARSET_ENCODING "1"
FONTNAME_REGISTRY ""
CHARSET_COLLECTIONS "ISO8859-5 ISO10646-1"
FONT_NAME "Monaco"
FACE_NAME "Monaco"
FONT_VERSION "001.000"
FONT_ASCENT 9
FONT_DESCENT 3
X_HEIGHT 10
CAP_HEIGHT 7
ENDPROPERTIES
CHARS 399
STARTCHAR exclam
ENCODING 33
SWIDTH 666 0
DWIDTH 8 0
BBX 2 8 2 -1
BITMAP
C0
C0
C0
C0
C0
C0
00
C0
ENDCHAR
STARTCHAR quotedbl
ENCODING 34
SWIDTH 666 0
DWIDTH 8 0
BBX 5 3 2 4
BITMAP
D8
D8
D8
ENDCHAR
STARTCHAR numbersign
ENCODING 35
SWIDTH 666 0
DWIDTH 8 0
BBX 8 8 0 -1
BITMAP
36
36
FF
6C
6C
FF
D8
D8
ENDCHAR
STARTCHAR dollar
ENCODING 36
SWIDTH 666 0
DWIDTH 8 0
BBX 7 10 0 -2
BITMAP
0C
7C
DE
D8
7C
36
36
F6
7C
60
ENDCHAR
STARTCHAR percent
ENCODING 37
SWIDTH 666 0
DWIDTH 8 0
BBX 8 8 0 -1
BITMAP
61
B3
D6
6C
1E
3B
6D
C6
ENDCHAR
STARTCHAR ampersand
ENCODING 38
SWIDTH 666 0
DWIDTH 8 0
BBX 8 8 0 -1
BITMAP
70
D8
E0
70
D8
CF
C6
7B
ENDCHAR
STARTCHAR quotesingle
ENCODING 39
SWIDTH 666 0
DWIDTH 8 0
BBX 2 3 2 4
BITMAP
C0
C0
C0
ENDCHAR
STARTCHAR parenleft
ENCODING 40
SWIDTH 666 0
DWIDTH 8 0
BBX 4 11 2 -3
BITMAP
30
60
60
C0
C0
C0
C0
C0
60
60
30
ENDCHAR
STARTCHAR parenright
ENCODING 41
SWIDTH 666 0
DWIDTH 8 0
BBX 4 11 2 -3
BITMAP
C0
60
60
30
30
30
30
30
60
60
C0
ENDCHAR
STARTCHAR asterisk
ENCODING 42
SWIDTH 666 0
DWIDTH 8 0
BBX 7 7 0 -1
BITMAP
10
D6
7C
FE
7C
D6
10
ENDCHAR
STARTCHAR plus
ENCODING 43
SWIDTH 666 0
DWIDTH 8 0
BBX 8 7 0 -1
BITMAP
18
18
18
FF
18
18
18
ENDCHAR
STARTCHAR comma
ENCODING 44
SWIDTH 666 0
DWIDTH 8 0
BBX 4 4 2 -2
BITMAP
70
70
70
E0
ENDCHAR
STARTCHAR hyphen
ENCODING 45
SWIDTH 666 0
DWIDTH 8 0
BBX 6 2 1 1
BITMAP
FC
FC
ENDCHAR
STARTCHAR period
ENCODING 46
SWIDTH 666 0
DWIDTH 8 0
BBX 3 3 3 -1
BITMAP
E0
E0
E0
ENDCHAR
STARTCHAR slash
ENCODING 47
SWIDTH 666 0
DWIDTH 8 0
BBX 6 10 1 -2
BITMAP
0C
0C
18
18
30
30
60
60
C0
C0
ENDCHAR
STARTCHAR zero
ENCODING 48
SWIDTH 666 0
DWIDTH 8 0
BBX 6 8 1 -1
BITMAP
78
CC
CC
DC
EC
CC
CC
78
ENDCHAR
STARTCHAR one
ENCODING 49
SWIDTH 666 0
DWIDTH 8 0
BBX 6 8 2 -1
BITMAP
30
70
F0
30
30
30
30
FC
ENDCHAR
STARTCHAR two
ENCODING 50
SWIDTH 666 0
DWIDTH 8 0
BBX 6 8 1 -1
BITMAP
78
CC
0C
0C
18
30
60
FC
ENDCHAR
STARTCHAR three
ENCODING 51
SWIDTH 666 0
DWIDTH 8 0
BBX 6 8 1 -1
BITMAP
78
CC
0C
18
0C
0C
CC
78
ENDCHAR
STARTCHAR four
ENCODING 52
SWIDTH 666 0
DWIDTH 8 0
BBX 6 8 1 -1
BITMAP
08
18
38
58
D8
FC
18
18
ENDCHAR
STARTCHAR five
ENCODING 53
SWIDTH 666 0
DWIDTH 8 0
BBX 5 8 1 -1
BITMAP
F8
C0
C0
F0
18
18
18
F0
ENDCHAR
STARTCHAR six
ENCODING 54
SWIDTH 666 0
DWIDTH 8 0
BBX 6 8 1 -1
BITMAP
78
CC
C0
F8
CC
CC
CC
78
ENDCHAR
STARTCHAR seven
ENCODING 55
SWIDTH 666 0
DWIDTH 8 0
BBX 6 8 1 -1
BITMAP
FC
CC
0C
18
30
60
60
60
ENDCHAR
STARTCHAR eight
ENCODING 56
SWIDTH 666 0
DWIDTH 8 0
BBX 6 8 1 -1
BITMAP
78
CC
CC
78
CC
CC
CC
78
ENDCHAR
STARTCHAR nine
ENCODING 57
SWIDTH 666 0
DWIDTH 8 0
BBX 6 9 1 -2
BITMAP
78
CC
CC
CC
CC
78
18
30
60
ENDCHAR
STARTCHAR colon
ENCODING 58
SWIDTH 666 0
DWIDTH 8 0
BBX 3 7 2 -1
BITMAP
E0
E0
E0
00
E0
E0
E0
ENDCHAR
STARTCHAR semicolon
ENCODING 59
SWIDTH 666 0
DWIDTH 8 0
BBX 4 8 1 -2
BITMAP
70
70
70
00
70
70
70
E0
ENDCHAR
STARTCHAR less
ENCODING 60
SWIDTH 666 0
DWIDTH 8 0
BBX 8 7 0 -1
BITMAP
07
1F
78
E0
78
1F
07
ENDCHAR
STARTCHAR equal
ENCODING 61
SWIDTH 666 0
DWIDTH 8 0
BBX 6 5 1 0
BITMAP
FC
FC
00
FC
FC
ENDCHAR
STARTCHAR greater
ENCODING 62
SWIDTH 666 0
DWIDTH 8 0
BBX 8 7 0 -1
BITMAP
E0
F8
1E
07
1E
F8
E0
ENDCHAR
STARTCHAR question
ENCODING 63
SWIDTH 666 0
DWIDTH 8 0
BBX 7 8 0 -1
BITMAP
7C
C6
0E
1C
38
30
00
30
ENDCHAR
STARTCHAR at
ENCODING 64
SWIDTH 666 0
DWIDTH 8 0
BBX 8 8 0 -2
BITMAP
7E
E3
DF
DB
DB
DF
C0
7E
ENDCHAR
STARTCHAR A
ENCODING 65
SWIDTH 666 0
DWIDTH 8 0
BBX 7 8 0 -1
BITMAP
10
38
38
6C
6C
FE
C6
C6
ENDCHAR
STARTCHAR B
ENCODING 66
SWIDTH 666 0
DWIDTH 8 0
BBX 7 8 1 -1
BITMAP
FC
C6
C6
FC
C6
C6
C6
FC
ENDCHAR
STARTCHAR C
ENCODING 67
SWIDTH 666 0
DWIDTH 8 0
BBX 7 8 1 -1
BITMAP
7C
C6
C0
C0
C0
C0
C6
7C
ENDCHAR
STARTCHAR D
ENCODING 68
SWIDTH 666 0
DWIDTH 8 0
BBX 7 8 1 -1
BITMAP
F8
CC
C6
C6
C6
C6
CC
F8
ENDCHAR
STARTCHAR E
ENCODING 69
SWIDTH 666 0
DWIDTH 8 0
BBX 6 8 1 -1
BITMAP
FC
C0
C0
F0
C0
C0
C0
FC
ENDCHAR
STARTCHAR F
ENCODING 70
SWIDTH 666 0
DWIDTH 8 0
BBX 6 8 1 -1
BITMAP
FC
C0
C0
F8
C0
C0
C0
C0
ENDCHAR
STARTCHAR G
ENCODING 71
SWIDTH 666 0
DWIDTH 8 0
BBX 7 8 1 -1
BITMAP
7C
C6
C0
C0
CE
C6
C6
7C
ENDCHAR
STARTCHAR H
ENCODING 72
SWIDTH 666 0
DWIDTH 8 0
BBX 7 8 1 -1
BITMAP
C6
C6
C6
FE
C6
C6
C6
C6
ENDCHAR
STARTCHAR I
ENCODING 73
SWIDTH 666 0
DWIDTH 8 0
BBX 6 8 1 -1
BITMAP
FC
30
30
30
30
30
30
FC
ENDCHAR
STARTCHAR J
ENCODING 74
SWIDTH 666 0
DWIDTH 8 0
BBX 7 8 1 -1
BITMAP
7E
06
06
06
06
C6
C6
7C
ENDCHAR
STARTCHAR K
ENCODING 75
SWIDTH 666 0
DWIDTH 8 0
BBX 7 8 1 -1
BITMAP
CC
D8
F0
E0
F0
D8
CC
C6
ENDCHAR
STARTCHAR L
ENCODING 76
SWIDTH 666 0
DWIDTH 8 0
BBX 6 8 1 -1
BITMAP
C0
C0
C0
C0
C0
C0
C0
FC
ENDCHAR
STARTCHAR M
ENCODING 77
SWIDTH 666 0
DWIDTH 8 0
BBX 7 8 0 -1
BITMAP
82
C6
EE
FE
D6
C6
C6
C6
ENDCHAR
STARTCHAR N
ENCODING 78
SWIDTH 666 0
DWIDTH 8 0
BBX 7 8 1 -1
BITMAP
C6
C6
E6
D6
CE
C6
C6
C6
ENDCHAR
STARTCHAR O
ENCODING 79
SWIDTH 666 0
DWIDTH 8 0
BBX 7 8 1 -1
BITMAP
7C
C6
C6
C6
C6
C6
C6
7C
ENDCHAR
STARTCHAR P
ENCODING 80
SWIDTH 666 0
DWIDTH 8 0
BBX 7 8 1 -1
BITMAP
FC
C6
C6
C6
C6
FC
C0
C0
ENDCHAR
STARTCHAR Q
ENCODING 81
SWIDTH 666 0
DWIDTH 8 0
BBX 7 10 1 -3
BITMAP
7C
C6
C6
C6
C6
C6
C6
7C
30
1C
ENDCHAR
STARTCHAR R
ENCODING 82
SWIDTH 666 0
DWIDTH 8 0
BBX 7 8 1 -1
BITMAP
F8
CC
CC
CC
F8
F8
DC
C6
ENDCHAR
STARTCHAR S
ENCODING 83
SWIDTH 666 0
DWIDTH 8 0
BBX 6 8 1 -1
BITMAP
78
CC
C0
78
0C
0C
CC
78
ENDCHAR
STARTCHAR T
ENCODING 84
SWIDTH 666 0
DWIDTH 8 0
BBX 8 8 0 -1
BITMAP
FF
18
18
18
18
18
18
18
ENDCHAR
STARTCHAR U
ENCODING 85
SWIDTH 666 0
DWIDTH 8 0
BBX 7 8 1 -1
BITMAP
C6
C6
C6
C6
C6
C6
C6
7C
ENDCHAR
STARTCHAR V
ENCODING 86
SWIDTH 666 0
DWIDTH 8 0
BBX 7 8 1 -1
BITMAP
C6
C6
C6
C6
6C
6C
38
38
ENDCHAR
STARTCHAR W
ENCODING 87
SWIDTH 666 0
DWIDTH 8 0
BBX 8 8 0 -1
BITMAP
C3
C3
DB
DB
DB
7E
5A
5A
ENDCHAR
STARTCHAR X
ENCODING 88
SWIDTH 666 0
DWIDTH 8 0
BBX 7 8 1 -1
BITMAP
C6
C6
6C
38
38
6C
C6
C6
ENDCHAR
STARTCHAR Y
ENCODING 89
SWIDTH 666 0
DWIDTH 8 0
BBX 8 8 0 -1
BITMAP
C3
C3
66
3C
18
18
18
18
ENDCHAR
STARTCHAR Z
ENCODING 90
SWIDTH 666 0
DWIDTH 8 0
BBX 7 8 1 -1
BITMAP
FE
06
0E
1C
38
70
E0
FE
ENDCHAR
STARTCHAR bracketleft
ENCODING 91
SWIDTH 666 0
DWIDTH 8 0
BBX 4 11 2 -3
BITMAP
F0
C0
C0
C0
C0
C0
C0
C0
C0
C0
F0
ENDCHAR
STARTCHAR backslash
ENCODING 92
SWIDTH 666 0
DWIDTH 8 0
BBX 6 10 1 -2
BITMAP
C0
C0
60
60
30
30
18
18
0C
0C
ENDCHAR
STARTCHAR bracketright
ENCODING 93
SWIDTH 666 0
DWIDTH 8 0
BBX 4 11 2 -3
BITMAP
F0
30
30
30
30
30
30
30
30
30
F0
ENDCHAR
STARTCHAR asciicircum
ENCODING 94
SWIDTH 666 0
DWIDTH 8 0
BBX 8 6 0 2
BITMAP
18
3C
3C
66
66
C3
ENDCHAR
STARTCHAR underscore
ENCODING 95
SWIDTH 666 0
DWIDTH 8 0
BBX 6 2 1 -2
BITMAP
FC
FC
ENDCHAR
STARTCHAR grave
ENCODING 96
SWIDTH 666 0
DWIDTH 8 0
BBX 3 2 2 4
BITMAP
C0
60
ENDCHAR
STARTCHAR a
ENCODING 97
SWIDTH 666 0
DWIDTH 8 0
BBX 8 6 0 -1
BITMAP
7C
C6
C6
C6
CE
7B
ENDCHAR
STARTCHAR b
ENCODING 98
SWIDTH 666 0
DWIDTH 8 0
BBX 7 9 1 -1
BITMAP
C0
C0
C0
FC
C6
C6
C6
C6
FC
ENDCHAR
STARTCHAR c
ENCODING 99
SWIDTH 666 0
DWIDTH 8 0
BBX 7 6 1 -1
BITMAP
7C
C6
C0
C0
C6
7C
ENDCHAR
STARTCHAR d
ENCODING 100
SWIDTH 666 0
DWIDTH 8 0
BBX 7 9 1 -1
BITMAP
06
06
06
7E
C6
C6
C6
C6
7E
ENDCHAR
STARTCHAR e
ENCODING 101
SWIDTH 666 0
DWIDTH 8 0
BBX 7 6 1 -1
BITMAP
7C
C6
FC
C0
C6
7C
ENDCHAR
STARTCHAR f
ENCODING 102
SWIDTH 666 0
DWIDTH 8 0
BBX 5 8 1 -1
BITMAP
38
60
F8
60
60
60
60
60
ENDCHAR
STARTCHAR g
ENCODING 103
SWIDTH 666 0
DWIDTH 8 0
BBX 7 8 1 -3
BITMAP
7E
C6
C6
C6
C6
7E
06
7C
ENDCHAR
STARTCHAR h
ENCODING 104
SWIDTH 666 0
DWIDTH 8 0
BBX 7 8 1 -1
BITMAP
C0
C0
FC
C6
C6
C6
C6
C6
ENDCHAR
STARTCHAR i
ENCODING 105
SWIDTH 666 0
DWIDTH 8 0
BBX 5 9 2 -1
BITMAP
60
60
00
E0
60
60
60
68
30
ENDCHAR
STARTCHAR j
ENCODING 106
SWIDTH 666 0
DWIDTH 8 0
BBX 4 11 2 -3
BITMAP
30
30
00
70
30
30
30
30
30
B0
60
ENDCHAR
STARTCHAR k
ENCODING 107
SWIDTH 666 0
DWIDTH 8 0
BBX 6 9 1 -1
BITMAP
C0
C0
C0
DC
F8
F0
F8
CC
CC
ENDCHAR
STARTCHAR l
ENCODING 108
SWIDTH 666 0
DWIDTH 8 0
BBX 5 9 2 -1
BITMAP
E0
60
60
60
60
60
60
78
30
ENDCHAR
STARTCHAR m
ENCODING 109
SWIDTH 666 0
DWIDTH 8 0
BBX 8 6 0 -1
BITMAP
B6
DB
DB
DB
DB
DB
ENDCHAR
STARTCHAR n
ENCODING 110
SWIDTH 666 0
DWIDTH 8 0
BBX 6 6 1 -1
BITMAP
B8
CC
CC
CC
CC
CC
ENDCHAR
STARTCHAR o
ENCODING 111
SWIDTH 666 0
DWIDTH 8 0
BBX 7 6 1 -1
BITMAP
7C
C6
C6
C6
C6
7C
ENDCHAR
STARTCHAR p
ENCODING 112
SWIDTH 666 0
DWIDTH 8 0
BBX 7 8 1 -3
BITMAP
FC
C6
C6
C6
C6
FC
C0
C0
ENDCHAR
STARTCHAR q
ENCODING 113
SWIDTH 666 0
DWIDTH 8 0
BBX 7 8 1 -3
BITMAP
7E
C6
C6
C6
C6
7E
06
06
ENDCHAR
STARTCHAR r
ENCODING 114
SWIDTH 666 0
DWIDTH 8 0
BBX 7 6 1 -1
BITMAP
DC
76
60
60
60
F0
ENDCHAR
STARTCHAR s
ENCODING 115
SWIDTH 666 0
DWIDTH 8 0
BBX 6 6 1 -1
BITMAP
78
CC
70
38
CC
78
ENDCHAR
STARTCHAR t
ENCODING 116
SWIDTH 666 0
DWIDTH 8 0
BBX 6 8 1 -1
BITMAP
30
30
FC
30
30
30
34
18
ENDCHAR
STARTCHAR u
ENCODING 117
SWIDTH 666 0
DWIDTH 8 0
BBX 7 6 1 -1
BITMAP
C6
C6
C6
C6
C6
7A
ENDCHAR
STARTCHAR v
ENCODING 118
SWIDTH 666 0
DWIDTH 8 0
BBX 7 6 1 -1
BITMAP
C6
C6
6C
6C
38
38
ENDCHAR
STARTCHAR w
ENCODING 119
SWIDTH 666 0
DWIDTH 8 0
BBX 8 6 0 -1
BITMAP
C3
C3
DB
DB
7E
5A
ENDCHAR
STARTCHAR x
ENCODING 120
SWIDTH 666 0
DWIDTH 8 0
BBX 7 6 1 -1
BITMAP
C6
6C
38
38
6C
C6
ENDCHAR
STARTCHAR y
ENCODING 121
SWIDTH 666 0
DWIDTH 8 0
BBX 7 8 1 -3
BITMAP
C6
C6
6C
3C
18
30
60
C0
ENDCHAR
STARTCHAR z
ENCODING 122
SWIDTH 666 0
DWIDTH 8 0
BBX 6 6 1 -1
BITMAP
FC
0C
18
30
60
FC
ENDCHAR
STARTCHAR braceleft
ENCODING 123
SWIDTH 666 0
DWIDTH 8 0
BBX 5 11 1 -3
BITMAP
18
30
30
30
30
E0
30
30
30
30
18
ENDCHAR
STARTCHAR bar
ENCODING 124
SWIDTH 666 0
DWIDTH 8 0
BBX 2 11 3 -3
BITMAP
C0
C0
C0
C0
C0
C0
C0
C0
C0
C0
C0
ENDCHAR
STARTCHAR braceright
ENCODING 125
SWIDTH 666 0
DWIDTH 8 0
BBX 5 11 2 -3
BITMAP
C0
60
60
60
60
38
60
60
60
60
C0
ENDCHAR
STARTCHAR asciitilde
ENCODING 126
SWIDTH 666 0
DWIDTH 8 0
BBX 8 3 0 1
BITMAP
73
DB
CE
ENDCHAR
STARTCHAR exclamdown
ENCODING 161
SWIDTH 666 0
DWIDTH 8 0
BBX 1 8 4 -2
BITMAP
80
00
80
80
80
80
80
80
ENDCHAR
STARTCHAR cent
ENCODING 162
SWIDTH 666 0
DWIDTH 8 0
BBX 5 10 0 -2
BITMAP
20
20
70
A8
A0
A0
A8
70
20
20
ENDCHAR
STARTCHAR sterling
ENCODING 163
SWIDTH 666 0
DWIDTH 8 0
BBX 5 8 0 -1
BITMAP
30
40
40
F0
40
40
88
F8
ENDCHAR
STARTCHAR yen
ENCODING 165
SWIDTH 666 0
DWIDTH 8 0
BBX 5 8 0 -1
BITMAP
88
88
50
20
F8
20
F8
20
ENDCHAR
STARTCHAR section
ENCODING 167
SWIDTH 666 0
DWIDTH 8 0
BBX 5 10 0 -2
BITMAP
78
80
80
70
88
88
70
08
08
F0
ENDCHAR
STARTCHAR dieresis
ENCODING 168
SWIDTH 666 0
DWIDTH 8 0
BBX 3 1 1 5
BITMAP
A0
ENDCHAR
STARTCHAR copyright
ENCODING 169
SWIDTH 666 0
DWIDTH 8 0
BBX 8 9 0 -1
BITMAP
3C
42
99
A5
A1
A5
99
42
3C
ENDCHAR
STARTCHAR ordfeminine
ENCODING 170
SWIDTH 666 0
DWIDTH 8 0
BBX 3 6 1 1
BITMAP
60
A0
A0
60
00
E0
ENDCHAR
STARTCHAR guillemotleft
ENCODING 171
SWIDTH 666 0
DWIDTH 8 0
BBX 8 7 0 -2
BITMAP
1B
36
6C
D8
6C
36
1B
ENDCHAR
STARTCHAR logicalnot
ENCODING 172
SWIDTH 666 0
DWIDTH 8 0
BBX 5 3 0 -1
BITMAP
F8
08
08
ENDCHAR
STARTCHAR registered
ENCODING 174
SWIDTH 666 0
DWIDTH 8 0
BBX 8 9 0 -1
BITMAP
3C
42
B9
A9
A9
B9
A5
42
3C
ENDCHAR
STARTCHAR macron
ENCODING 175
SWIDTH 666 0
DWIDTH 8 0
BBX 3 1 1 5
BITMAP
E0
ENDCHAR
STARTCHAR degree
ENCODING 176
SWIDTH 666 0
DWIDTH 8 0
BBX 3 3 1 4
BITMAP
40
A0
40
ENDCHAR
STARTCHAR plusminus
ENCODING 177
SWIDTH 666 0
DWIDTH 8 0
BBX 5 7 1 -1
BITMAP
20
20
F8
20
20
00
F8
ENDCHAR
STARTCHAR acute
ENCODING 180
SWIDTH 666 0
DWIDTH 8 0
BBX 2 2 2 5
BITMAP
40
80
ENDCHAR
STARTCHAR paragraph
ENCODING 182
SWIDTH 666 0
DWIDTH 8 0
BBX 7 9 0 -2
BITMAP
7E
F6
F6
76
36
36
36
36
36
ENDCHAR
STARTCHAR periodcentered
ENCODING 183
SWIDTH 666 0
DWIDTH 8 0
BBX 2 2 2 2
BITMAP
C0
C0
ENDCHAR
STARTCHAR cedilla
ENCODING 184
SWIDTH 666 0
DWIDTH 8 0
BBX 2 3 1 -3
BITMAP
80
40
80
ENDCHAR
STARTCHAR ordmasculine
ENCODING 186
SWIDTH 666 0
DWIDTH 8 0
BBX 3 6 1 1
BITMAP
40
A0
A0
40
00
E0
ENDCHAR
STARTCHAR guillemotright
ENCODING 187
SWIDTH 666 0
DWIDTH 8 0
BBX 8 7 0 -2
BITMAP
D8
6C
36
1B
36
6C
D8
ENDCHAR
STARTCHAR questiondown
ENCODING 191
SWIDTH 666 0
DWIDTH 8 0
BBX 5 8 0 -3
BITMAP
20
00
20
20
40
80
88
70
ENDCHAR
STARTCHAR Agrave
ENCODING 192
SWIDTH 666 0
DWIDTH 8 0
BBX 5 10 0 0
BITMAP
40
20
00
20
20
50
50
F8
88
88
ENDCHAR
STARTCHAR Aacute
ENCODING 193
SWIDTH 666 0
DWIDTH 8 0
BBX 5 10 0 0
BITMAP
10
20
00
20
20
50
50
F8
88
88
ENDCHAR
STARTCHAR Acircumflex
ENCODING 194
SWIDTH 666 0
DWIDTH 8 0
BBX 5 10 0 0
BITMAP
20
50
00
20
20
50
50
F8
88
88
ENDCHAR
STARTCHAR Atilde
ENCODING 195
SWIDTH 666 0
DWIDTH 8 0
BBX 5 10 0 0
BITMAP
28
50
00
20
20
50
50
F8
88
88
ENDCHAR
STARTCHAR Adieresis
ENCODING 196
SWIDTH 666 0
DWIDTH 8 0
BBX 5 10 0 0
BITMAP
50
00
20
20
20
50
50
F8
88
88
ENDCHAR
STARTCHAR Aring
ENCODING 197
SWIDTH 666 0
DWIDTH 8 0
BBX 5 10 0 0
BITMAP
20
50
20
20
20
50
50
F8
88
88
ENDCHAR
STARTCHAR AE
ENCODING 198
SWIDTH 666 0
DWIDTH 8 0
BBX 5 8 0 0
BITMAP
78
60
60
78
E0
A0
A0
B8
ENDCHAR
STARTCHAR Ccedilla
ENCODING 199
SWIDTH 666 0
DWIDTH 8 0
BBX 5 11 0 -3
BITMAP
70
88
80
80
80
80
88
70
20
10
20
ENDCHAR
STARTCHAR Egrave
ENCODING 200
SWIDTH 666 0
DWIDTH 8 0
BBX 5 10 0 0
BITMAP
40
20
F8
80
80
F0
80
80
80
F8
ENDCHAR
STARTCHAR Eacute
ENCODING 201
SWIDTH 666 0
DWIDTH 8 0
BBX 5 10 0 0
BITMAP
10
20
F8
80
80
F0
80
80
80
F8
ENDCHAR
STARTCHAR Ecircumflex
ENCODING 202
SWIDTH 666 0
DWIDTH 8 0
BBX 5 10 0 0
BITMAP
20
50
F8
80
80
F0
80
80
80
F8
ENDCHAR
STARTCHAR Edieresis
ENCODING 203
SWIDTH 666 0
DWIDTH 8 0
BBX 5 10 0 0
BITMAP
50
00
F8
80
80
F0
80
80
80
F8
ENDCHAR
STARTCHAR Igrave
ENCODING 204
SWIDTH 666 0
DWIDTH 8 0
BBX 3 10 1 0
BITMAP
80
40
E0
40
40
40
40
40
40
E0
ENDCHAR
STARTCHAR Iacute
ENCODING 205
SWIDTH 666 0
DWIDTH 8 0
BBX 3 10 1 0
BITMAP
20
40
E0
40
40
40
40
40
40
E0
ENDCHAR
STARTCHAR Icircumflex
ENCODING 206
SWIDTH 666 0
DWIDTH 8 0
BBX 3 10 1 0
BITMAP
40
A0
E0
40
40
40
40
40
40
E0
ENDCHAR
STARTCHAR Idieresis
ENCODING 207
SWIDTH 666 0
DWIDTH 8 0
BBX 3 10 1 0
BITMAP
A0
00
E0
40
40
40
40
40
40
E0
ENDCHAR
STARTCHAR Ntilde
ENCODING 209
SWIDTH 666 0
DWIDTH 8 0
BBX 5 10 0 0
BITMAP
28
50
88
C8
C8
A8
A8
98
98
88
ENDCHAR
STARTCHAR Ograve
ENCODING 210
SWIDTH 666 0
DWIDTH 8 0
BBX 5 10 0 0
BITMAP
40
20
70
88
88
88
88
88
88
70
ENDCHAR
STARTCHAR Oacute
ENCODING 211
SWIDTH 666 0
DWIDTH 8 0
BBX 5 10 0 0
BITMAP
10
20
70
88
88
88
88
88
88
70
ENDCHAR
STARTCHAR Ocircumflex
ENCODING 212
SWIDTH 666 0
DWIDTH 8 0
BBX 5 10 0 0
BITMAP
20
50
70
88
88
88
88
88
88
70
ENDCHAR
STARTCHAR Otilde
ENCODING 213
SWIDTH 666 0
DWIDTH 8 0
BBX 5 10 0 0
BITMAP
50
A0
70
88
88
88
88
88
88
70
ENDCHAR
STARTCHAR Odieresis
ENCODING 214
SWIDTH 666 0
DWIDTH 8 0
BBX 5 10 0 0
BITMAP
50
00
70
88
88
88
88
88
88
70
ENDCHAR
STARTCHAR Oslash
ENCODING 216
SWIDTH 666 0
DWIDTH 8 0
BBX 6 10 0 -1
BITMAP
04
78
98
98
A8
A8
C8
C8
F0
80
ENDCHAR
STARTCHAR Ugrave
ENCODING 217
SWIDTH 666 0
DWIDTH 8 0
BBX 5 10 0 0
BITMAP
40
20
88
88
88
88
88
88
88
70
ENDCHAR
STARTCHAR Uacute
ENCODING 218
SWIDTH 666 0
DWIDTH 8 0
BBX 5 10 0 0
BITMAP
10
20
88
88
88
88
88
88
88
70
ENDCHAR
STARTCHAR Ucircumflex
ENCODING 219
SWIDTH 666 0
DWIDTH 8 0
BBX 5 10 0 0
BITMAP
20
50
88
88
88
88
88
88
88
70
ENDCHAR
STARTCHAR Udieresis
ENCODING 220
SWIDTH 666 0
DWIDTH 8 0
BBX 5 10 0 0
BITMAP
50
00
88
88
88
88
88
88
88
70
ENDCHAR
STARTCHAR germandbls
ENCODING 223
SWIDTH 666 0
DWIDTH 8 0
BBX 6 8 0 0
BITMAP
70
88
90
A0
98
84
84
B8
ENDCHAR
STARTCHAR agrave
ENCODING 224
SWIDTH 666 0
DWIDTH 8 0
BBX 5 9 0 0
BITMAP
20
10
00
78
88
88
88
98
68
ENDCHAR
STARTCHAR aacute
ENCODING 225
SWIDTH 666 0
DWIDTH 8 0
BBX 5 9 0 0
BITMAP
10
20
00
78
88
88
88
98
68
ENDCHAR
STARTCHAR acircumflex
ENCODING 226
SWIDTH 666 0
DWIDTH 8 0
BBX 5 9 0 0
BITMAP
20
50
00
78
88
88
88
98
68
ENDCHAR
STARTCHAR atilde
ENCODING 227
SWIDTH 666 0
DWIDTH 8 0
BBX 5 9 0 0
BITMAP
28
50
00
78
88
88
88
98
68
ENDCHAR
STARTCHAR adieresis
ENCODING 228
SWIDTH 666 0
DWIDTH 8 0
BBX 5 8 0 0
BITMAP
50
00
78
88
88
88
98
68
ENDCHAR
STARTCHAR aring
ENCODING 229
SWIDTH 666 0
DWIDTH 8 0
BBX 5 10 0 0
BITMAP
20
50
20
00
78
88
88
88
98
68
ENDCHAR
STARTCHAR ae
ENCODING 230
SWIDTH 666 0
DWIDTH 8 0
BBX 5 6 0 0
BITMAP
70
A8
B8
A0
A0
78
ENDCHAR
STARTCHAR ccedilla
ENCODING 231
SWIDTH 666 0
DWIDTH 8 0
BBX 5 9 0 -3
BITMAP
70
88
80
80
88
70
20
10
20
ENDCHAR
STARTCHAR egrave
ENCODING 232
SWIDTH 666 0
DWIDTH 8 0
BBX 5 9 0 0
BITMAP
40
20
00
70
88
F8
80
88
70
ENDCHAR
STARTCHAR eacute
ENCODING 233
SWIDTH 666 0
DWIDTH 8 0
BBX 5 9 0 0
BITMAP
10
20
00
70
88
F8
80
88
70
ENDCHAR
STARTCHAR ecircumflex
ENCODING 234
SWIDTH 666 0
DWIDTH 8 0
BBX 5 9 0 0
BITMAP
20
50
00
70
88
F8
80
88
70
ENDCHAR
STARTCHAR edieresis
ENCODING 235
SWIDTH 666 0
DWIDTH 8 0
BBX 5 8 0 0
BITMAP
50
00
70
88
F8
80
88
70
ENDCHAR
STARTCHAR igrave
ENCODING 236
SWIDTH 666 0
DWIDTH 8 0
BBX 4 10 0 0
BITMAP
80
40
20
00
60
20
20
20
20
30
ENDCHAR
STARTCHAR iacute
ENCODING 237
SWIDTH 666 0
DWIDTH 8 0
BBX 4 10 1 0
BITMAP
10
20
40
00
C0
40
40
40
40
60
ENDCHAR
STARTCHAR icircumflex
ENCODING 238
SWIDTH 666 0
DWIDTH 8 0
BBX 3 9 1 0
BITMAP
40
A0
00
C0
40
40
40
40
60
ENDCHAR
STARTCHAR idieresis
ENCODING 239
SWIDTH 666 0
DWIDTH 8 0
BBX 3 8 1 0
BITMAP
A0
00
C0
40
40
40
40
60
ENDCHAR
STARTCHAR ntilde
ENCODING 241
SWIDTH 666 0
DWIDTH 8 0
BBX 5 9 0 0
BITMAP
28
50
00
B0
C8
88
88
88
88
ENDCHAR
STARTCHAR ograve
ENCODING 242
SWIDTH 666 0
DWIDTH 8 0
BBX 5 9 0 0
BITMAP
40
20
00
70
88
88
88
88
70
ENDCHAR
STARTCHAR oacute
ENCODING 243
SWIDTH 666 0
DWIDTH 8 0
BBX 5 9 0 0
BITMAP
10
20
00
70
88
88
88
88
70
ENDCHAR
STARTCHAR ocircumflex
ENCODING 244
SWIDTH 666 0
DWIDTH 8 0
BBX 5 9 0 0
BITMAP
20
50
00
70
88
88
88
88
70
ENDCHAR
STARTCHAR otilde
ENCODING 245
SWIDTH 666 0
DWIDTH 8 0
BBX 5 9 0 0
BITMAP
28
50
00
70
88
88
88
88
70
ENDCHAR
STARTCHAR odieresis
ENCODING 246
SWIDTH 666 0
DWIDTH 8 0
BBX 5 8 0 0
BITMAP
50
00
70
88
88
88
88
70
ENDCHAR
STARTCHAR divide
ENCODING 247
SWIDTH 666 0
DWIDTH 8 0
BBX 5 5 0 0
BITMAP
20
00
F8
00
20
ENDCHAR
STARTCHAR oslash
ENCODING 248
SWIDTH 666 0
DWIDTH 8 0
BBX 6 8 0 -1
BITMAP
04
78
98
A8
A8
C8
F0
80
ENDCHAR
STARTCHAR ugrave
ENCODING 249
SWIDTH 666 0
DWIDTH 8 0
BBX 5 9 0 0
BITMAP
40
20
00
88
88
88
88
98
68
ENDCHAR
STARTCHAR uacute
ENCODING 250
SWIDTH 666 0
DWIDTH 8 0
BBX 5 9 0 0
BITMAP
10
20
00
88
88
88
88
98
68
ENDCHAR
STARTCHAR ucircumflex
ENCODING 251
SWIDTH 666 0
DWIDTH 8 0
BBX 5 9 0 0
BITMAP
20
50
00
88
88
88
88
98
68
ENDCHAR
STARTCHAR udieresis
ENCODING 252
SWIDTH 666 0
DWIDTH 8 0
BBX 5 8 0 0
BITMAP
50
00
88
88
88
88
98
68
ENDCHAR
STARTCHAR ydieresis
ENCODING 255
SWIDTH 666 0
DWIDTH 8 0
BBX 5 10 0 -2
BITMAP
50
00
88
88
50
50
20
20
40
80
ENDCHAR
STARTCHAR dotlessi
ENCODING 305
SWIDTH 666 0
DWIDTH 8 0
BBX 3 6 1 0
BITMAP
C0
40
40
40
40
60
ENDCHAR
STARTCHAR OE
ENCODING 338
SWIDTH 666 0
DWIDTH 8 0
BBX 5 8 0 0
BITMAP
78
A0
A0
B8
A0
A0
A0
78
ENDCHAR
STARTCHAR oe
ENCODING 339
SWIDTH 666 0
DWIDTH 8 0
BBX 5 6 0 0
BITMAP
70
A8
B8
A0
A8
70
ENDCHAR
STARTCHAR ycircumflex
ENCODING 375
SWIDTH 666 0
DWIDTH 8 0
BBX 8 12 0 -3
BITMAP
18
24
00
81
81
81
81
7F
01
81
81
7E
ENDCHAR
STARTCHAR Ydieresis
ENCODING 376
SWIDTH 666 0
DWIDTH 8 0
BBX 5 10 0 0
BITMAP
50
00
88
88
50
50
20
20
20
20
ENDCHAR
STARTCHAR florin
ENCODING 402
SWIDTH 666 0
DWIDTH 8 0
BBX 5 11 0 -3
BITMAP
18
20
78
20
20
20
20
20
20
A0
40
ENDCHAR
STARTCHAR circumflex
ENCODING 710
SWIDTH 666 0
DWIDTH 8 0
BBX 3 2 1 6
BITMAP
40
A0
ENDCHAR
STARTCHAR caron
ENCODING 711
SWIDTH 666 0
DWIDTH 8 0
BBX 3 2 0 6
BITMAP
A0
40
ENDCHAR
STARTCHAR breve
ENCODING 728
SWIDTH 666 0
DWIDTH 8 0
BBX 3 2 1 6
BITMAP
A0
40
ENDCHAR
STARTCHAR dotaccent
ENCODING 729
SWIDTH 666 0
DWIDTH 8 0
BBX 2 2 2 6
BITMAP
C0
C0
ENDCHAR
STARTCHAR ring
ENCODING 730
SWIDTH 666 0
DWIDTH 8 0
BBX 3 3 1 6
BITMAP
40
A0
40
ENDCHAR
STARTCHAR ogonek
ENCODING 731
SWIDTH 666 0
DWIDTH 8 0
BBX 2 3 1 -3
BITMAP
40
80
40
ENDCHAR
STARTCHAR tilde
ENCODING 732
SWIDTH 666 0
DWIDTH 8 0
BBX 4 2 1 6
BITMAP
50
A0
ENDCHAR
STARTCHAR hungarumlaut
ENCODING 733
SWIDTH 666 0
DWIDTH 8 0
BBX 3 3 2 6
BITMAP
A0
A0
A0
ENDCHAR
STARTCHAR Alpha
ENCODING 913
SWIDTH 666 0
DWIDTH 8 0
BBX 7 8 0 -1
BITMAP
10
38
6C
6C
7C
6C
6C
EE
ENDCHAR
STARTCHAR Beta
ENCODING 914
SWIDTH 666 0
DWIDTH 8 0
BBX 7 8 1 -1
BITMAP
F8
6C
6C
7C
66
66
66
FC
ENDCHAR
STARTCHAR Gamma
ENCODING 915
SWIDTH 666 0
DWIDTH 8 0
BBX 6 8 1 -1
BITMAP
FC
6C
60
60
60
60
60
F0
ENDCHAR
STARTCHAR Delta
ENCODING 916
SWIDTH 666 0
DWIDTH 8 0
BBX 7 8 0 -1
BITMAP
10
38
38
6C
6C
C6
C6
FE
ENDCHAR
STARTCHAR Epsilon
ENCODING 917
SWIDTH 666 0
DWIDTH 8 0
BBX 7 8 1 -1
BITMAP
FE
66
60
70
60
60
66
FE
ENDCHAR
STARTCHAR Zeta
ENCODING 918
SWIDTH 666 0
DWIDTH 8 0
BBX 6 8 1 -1
BITMAP
FC
0C
0C
38
70
C0
C0
FC
ENDCHAR
STARTCHAR Eta
ENCODING 919
SWIDTH 666 0
DWIDTH 8 0
BBX 7 8 0 -1
BITMAP
EE
6C
6C
7C
6C
6C
6C
EE
ENDCHAR
STARTCHAR Theta
ENCODING 920
SWIDTH 666 0
DWIDTH 8 0
BBX 6 8 1 -1
BITMAP
78
CC
CC
FC
CC
CC
CC
78
ENDCHAR
STARTCHAR Iota
ENCODING 921
SWIDTH 666 0
DWIDTH 8 0
BBX 6 8 1 -1
BITMAP
FC
30
30
30
30
30
30
FC
ENDCHAR
STARTCHAR Kappa
ENCODING 922
SWIDTH 666 0
DWIDTH 8 0
BBX 7 8 1 -1
BITMAP
E6
6C
78
70
70
78
6C
E6
ENDCHAR
STARTCHAR Lambda
ENCODING 923
SWIDTH 666 0
DWIDTH 8 0
BBX 7 9 0 -1
BITMAP
60
30
30
38
6C
6C
C6
C6
C6
ENDCHAR
STARTCHAR Mu
ENCODING 924
SWIDTH 666 0
DWIDTH 8 0
BBX 7 8 0 -1
BITMAP
C6
EE
FE
D6
D6
C6
C6
EE
ENDCHAR
STARTCHAR Nu
ENCODING 925
SWIDTH 666 0
DWIDTH 8 0
BBX 7 8 0 -1
BITMAP
EE
66
66
76
7E
6E
66
E6
ENDCHAR
STARTCHAR Xi
ENCODING 926
SWIDTH 666 0
DWIDTH 8 0
BBX 7 8 0 -1
BITMAP
FE
FE
82
7C
7C
82
FE
FE
ENDCHAR
STARTCHAR Omicron
ENCODING 927
SWIDTH 666 0
DWIDTH 8 0
BBX 7 8 0 -1
BITMAP
7C
C6
C6
C6
C6
C6
C6
7C
ENDCHAR
STARTCHAR Pi
ENCODING 928
SWIDTH 666 0
DWIDTH 8 0
BBX 7 8 0 -1
BITMAP
FE
6C
6C
6C
6C
6C
6C
EE
ENDCHAR
STARTCHAR Rho
ENCODING 929
SWIDTH 666 0
DWIDTH 8 0
BBX 6 8 1 -1
BITMAP
F8
6C
6C
6C
F8
60
60
E0
ENDCHAR
STARTCHAR Sigma
ENCODING 931
SWIDTH 666 0
DWIDTH 8 0
BBX 7 8 0 -1
BITMAP
FE
66
30
18
18
30
66
FE
ENDCHAR
STARTCHAR Tau
ENCODING 932
SWIDTH 666 0
DWIDTH 8 0
BBX 8 8 0 -1
BITMAP
FF
DB
18
18
18
18
18
3C
ENDCHAR
STARTCHAR Upsilon
ENCODING 933
SWIDTH 666 0
DWIDTH 8 0
BBX 8 8 0 -1
BITMAP
E7
E7
66
3C
18
18
18
3C
ENDCHAR
STARTCHAR Phi
ENCODING 934
SWIDTH 666 0
DWIDTH 8 0
BBX 8 10 0 -2
BITMAP
3C
18
7E
DB
DB
DB
DB
7E
18
18
ENDCHAR
STARTCHAR Chi
ENCODING 935
SWIDTH 666 0
DWIDTH 8 0
BBX 8 8 0 -1
BITMAP
E6
66
3C
18
18
3C
66
67
ENDCHAR
STARTCHAR Psi
ENCODING 936
SWIDTH 666 0
DWIDTH 8 0
BBX 8 8 0 -1
BITMAP
DB
DB
DB
DB
DB
7E
18
3C
ENDCHAR
STARTCHAR Omegagreek
ENCODING 937
SWIDTH 666 0
DWIDTH 8 0
BBX 7 8 0 -1
BITMAP
7C
C6
C6
C6
C6
C6
6C
EE
ENDCHAR
STARTCHAR alpha
ENCODING 945
SWIDTH 666 0
DWIDTH 8 0
BBX 6 5 1 -1
BITMAP
74
DC
D8
DC
74
ENDCHAR
STARTCHAR beta
ENCODING 946
SWIDTH 666 0
DWIDTH 8 0
BBX 6 11 0 -3
BITMAP
C0
F0
D8
D8
FC
CC
CC
CC
F8
C0
C0
ENDCHAR
STARTCHAR gamma
ENCODING 947
SWIDTH 666 0
DWIDTH 8 0
BBX 8 8 0 -3
BITMAP
E7
66
3C
3C
18
18
18
18
ENDCHAR
STARTCHAR delta
ENCODING 948
SWIDTH 666 0
DWIDTH 8 0
BBX 6 8 1 -1
BITMAP
FC
60
30
78
CC
CC
CC
78
ENDCHAR
STARTCHAR epsilon
ENCODING 949
SWIDTH 666 0
DWIDTH 8 0
BBX 6 6 1 -1
BITMAP
78
CC
60
C0
D8
70
ENDCHAR
STARTCHAR zeta
ENCODING 950
SWIDTH 666 0
DWIDTH 8 0
BBX 6 10 1 -3
BITMAP
FC
0C
38
60
30
60
C0
78
0C
18
ENDCHAR
STARTCHAR eta
ENCODING 951
SWIDTH 666 0
DWIDTH 8 0
BBX 7 8 1 -3
BITMAP
F8
CC
CC
CC
CC
CC
0C
06
ENDCHAR
STARTCHAR theta
ENCODING 952
SWIDTH 666 0
DWIDTH 8 0
BBX 6 8 1 -1
BITMAP
78
CC
CC
FC
CC
CC
CC
78
ENDCHAR
STARTCHAR iota
ENCODING 953
SWIDTH 666 0
DWIDTH 8 0
BBX 5 6 2 -1
BITMAP
E0
60
60
60
60
38
ENDCHAR
STARTCHAR kappa
ENCODING 954
SWIDTH 666 0
DWIDTH 8 0
BBX 5 6 2 -1
BITMAP
D8
F0
E0
E0
F0
D8
ENDCHAR
STARTCHAR lambda
ENCODING 955
SWIDTH 666 0
DWIDTH 8 0
BBX 6 9 1 -1
BITMAP
60
60
30
30
78
78
CC
CC
CC
ENDCHAR
STARTCHAR mu
ENCODING 956
SWIDTH 666 0
DWIDTH 8 0
BBX 6 8 1 -3
BITMAP
CC
CC
CC
CC
CC
F8
C0
C0
ENDCHAR
STARTCHAR nu
ENCODING 957
SWIDTH 666 0
DWIDTH 8 0
BBX 7 6 1 -1
BITMAP
E6
66
3C
3C
18
18
ENDCHAR
STARTCHAR xi
ENCODING 958
SWIDTH 666 0
DWIDTH 8 0
BBX 6 10 1 -3
BITMAP
78
CC
C0
70
C0
C0
C0
78
0C
18
ENDCHAR
STARTCHAR omicron
ENCODING 959
SWIDTH 666 0
DWIDTH 8 0
BBX 5 6 1 -1
BITMAP
70
D8
D8
D8
D8
70
ENDCHAR
STARTCHAR pi
ENCODING 960
SWIDTH 666 0
DWIDTH 8 0
BBX 8 6 0 -1
BITMAP
01
7F
B6
36
36
66
ENDCHAR
STARTCHAR rho
ENCODING 961
SWIDTH 666 0
DWIDTH 8 0
BBX 6 8 1 -3
BITMAP
78
CC
CC
CC
CC
F8
C0
C0
ENDCHAR
STARTCHAR sigma1
ENCODING 962
SWIDTH 666 0
DWIDTH 8 0
BBX 7 9 1 -3
BITMAP
02
7E
FC
C0
C0
E0
70
18
08
ENDCHAR
STARTCHAR sigma
ENCODING 963
SWIDTH 666 0
DWIDTH 8 0
BBX 7 6 1 -1
BITMAP
7E
CC
CC
CC
CC
78
ENDCHAR
STARTCHAR tau
ENCODING 964
SWIDTH 666 0
DWIDTH 8 0
BBX 8 6 0 -1
BITMAP
E7
18
18
18
18
0E
ENDCHAR
STARTCHAR upsilon
ENCODING 965
SWIDTH 666 0
DWIDTH 8 0
BBX 8 6 0 -1
BITMAP
EF
66
66
66
66
3C
ENDCHAR
STARTCHAR phi
ENCODING 966
SWIDTH 666 0
DWIDTH 8 0
BBX 8 8 0 -3
BITMAP
4E
DB
DB
DB
DB
7E
18
18
ENDCHAR
STARTCHAR chi
ENCODING 967
SWIDTH 666 0
DWIDTH 8 0
BBX 8 8 0 -3
BITMAP
E6
76
3C
18
18
3C
6E
67
ENDCHAR
STARTCHAR psi
ENCODING 968
SWIDTH 666 0
DWIDTH 8 0
BBX 8 11 0 -3
BITMAP
18
18
DB
DB
DB
DB
DB
DB
7E
18
18
ENDCHAR
STARTCHAR omega
ENCODING 969
SWIDTH 666 0
DWIDTH 8 0
BBX 8 6 0 -1
BITMAP
66
C3
DB
DB
DB
7E
ENDCHAR
STARTCHAR Iocyrillic
ENCODING 1025
SWIDTH 666 0
DWIDTH 8 0
BBX 6 10 1 -1
BITMAP
CC
00
FC
C0
C0
F0
C0
C0
C0
FC
ENDCHAR
STARTCHAR Djecyrillic
ENCODING 1026
SWIDTH 666 0
DWIDTH 8 0
BBX 5 10 0 -2
BITMAP
F8
40
40
70
48
48
48
48
08
30
ENDCHAR
STARTCHAR Gjecyrillic
ENCODING 1027
SWIDTH 666 0
DWIDTH 8 0
BBX 5 10 0 0
BITMAP
10
20
F8
80
80
80
80
80
80
80
ENDCHAR
STARTCHAR Ecyrillic
ENCODING 1028
SWIDTH 666 0
DWIDTH 8 0
BBX 5 8 0 0
BITMAP
70
88
80
F0
80
80
88
70
ENDCHAR
STARTCHAR Dzecyrillic
ENCODING 1029
SWIDTH 666 0
DWIDTH 8 0
BBX 5 8 0 0
BITMAP
70
88
80
70
08
08
88
70
ENDCHAR
STARTCHAR Icyrillic
ENCODING 1030
SWIDTH 666 0
DWIDTH 8 0
BBX 1 8 2 0
BITMAP
80
80
80
80
80
80
80
80
ENDCHAR
STARTCHAR Yicyrillic
ENCODING 1031
SWIDTH 666 0
DWIDTH 8 0
BBX 3 10 1 0
BITMAP
A0
00
40
40
40
40
40
40
40
40
ENDCHAR
STARTCHAR Jecyrillic
ENCODING 1032
SWIDTH 666 0
DWIDTH 8 0
BBX 5 8 0 0
BITMAP
08
08
08
08
08
08
88
70
ENDCHAR
STARTCHAR Ljecyrillic
ENCODING 1033
SWIDTH 666 0
DWIDTH 8 0
BBX 6 8 0 0
BITMAP
30
50
50
50
58
54
54
98
ENDCHAR
STARTCHAR Njecyrillic
ENCODING 1034
SWIDTH 666 0
DWIDTH 8 0
BBX 5 8 0 0
BITMAP
A0
A0
A0
F0
A8
A8
A8
B0
ENDCHAR
STARTCHAR Tshecyrillic
ENCODING 1035
SWIDTH 666 0
DWIDTH 8 0
BBX 5 8 0 0
BITMAP
F8
40
40
70
48
48
48
48
ENDCHAR
STARTCHAR Kjecyrillic
ENCODING 1036
SWIDTH 666 0
DWIDTH 8 0
BBX 5 10 0 0
BITMAP
10
20
88
90
A0
C0
C0
A0
90
88
ENDCHAR
STARTCHAR Ushortcyrillic
ENCODING 1038
SWIDTH 666 0
DWIDTH 8 0
BBX 5 10 0 0
BITMAP
50
20
88
88
88
78
08
08
88
70
ENDCHAR
STARTCHAR Dzhecyrillic
ENCODING 1039
SWIDTH 666 0
DWIDTH 8 0
BBX 5 10 0 -2
BITMAP
88
88
88
88
88
88
88
F8
20
20
ENDCHAR
STARTCHAR Acyrillic
ENCODING 1040
SWIDTH 666 0
DWIDTH 8 0
BBX 7 8 1 -1
BITMAP
7C
C6
C6
C6
FE
C6
C6
C6
ENDCHAR
STARTCHAR Becyrillic
ENCODING 1041
SWIDTH 666 0
DWIDTH 8 0
BBX 7 8 1 -1
BITMAP
FC
C0
C0
FC
C6
C6
C6
FC
ENDCHAR
STARTCHAR Vecyrillic
ENCODING 1042
SWIDTH 666 0
DWIDTH 8 0
BBX 7 8 1 -1
BITMAP
F8
CC
CC
FC
C6
C6
C6
FC
ENDCHAR
STARTCHAR Gecyrillic
ENCODING 1043
SWIDTH 666 0
DWIDTH 8 0
BBX 6 8 1 -1
BITMAP
FC
C0
C0
C0
C0
C0
C0
C0
ENDCHAR
STARTCHAR Decyrillic
ENCODING 1044
SWIDTH 666 0
DWIDTH 8 0
BBX 8 10 0 -3
BITMAP
3E
66
66
66
66
66
66
FF
C3
C3
ENDCHAR
STARTCHAR Iecyrillic
ENCODING 1045
SWIDTH 666 0
DWIDTH 8 0
BBX 6 8 1 -1
BITMAP
FC
C0
C0
F8
C0
C0
C0
FC
ENDCHAR
STARTCHAR Zhecyrillic
ENCODING 1046
SWIDTH 666 0
DWIDTH 8 0
BBX 8 8 0 -1
BITMAP
DB
DB
DB
7E
DB
DB
DB
DB
ENDCHAR
STARTCHAR Zecyrillic
ENCODING 1047
SWIDTH 666 0
DWIDTH 8 0
BBX 7 8 1 -1
BITMAP
7C
C6
06
3C
06
06
C6
7C
ENDCHAR
STARTCHAR Iicyrillic
ENCODING 1048
SWIDTH 666 0
DWIDTH 8 0
BBX 7 8 1 -1
BITMAP
C6
C6
CE
D6
E6
C6
C6
C6
ENDCHAR
STARTCHAR Iishortcyrillic
ENCODING 1049
SWIDTH 666 0
DWIDTH 8 0
BBX 7 10 1 -1
BITMAP
6C
38
C6
C6
CE
D6
E6
C6
C6
C6
ENDCHAR
STARTCHAR Kacyrillic
ENCODING 1050
SWIDTH 666 0
DWIDTH 8 0
BBX 6 8 1 -1
BITMAP
CC
D8
F0
F0
F0
D8
D8
CC
ENDCHAR
STARTCHAR Elcyrillic
ENCODING 1051
SWIDTH 666 0
DWIDTH 8 0
BBX 7 8 1 -1
BITMAP
3E
66
66
66
66
66
66
C6
ENDCHAR
STARTCHAR Emcyrillic
ENCODING 1052
SWIDTH 666 0
DWIDTH 8 0
BBX 7 8 0 -1
BITMAP
82
C6
EE
FE
FE
D6
C6
C6
ENDCHAR
STARTCHAR Encyrillic
ENCODING 1053
SWIDTH 666 0
DWIDTH 8 0
BBX 7 8 1 -1
BITMAP
C6
C6
C6
FE
C6
C6
C6
C6
ENDCHAR
STARTCHAR Ocyrillic
ENCODING 1054
SWIDTH 666 0
DWIDTH 8 0
BBX 7 8 1 -1
BITMAP
7C
C6
C6
C6
C6
C6
C6
7C
ENDCHAR
STARTCHAR Pecyrillic
ENCODING 1055
SWIDTH 666 0
DWIDTH 8 0
BBX 7 8 1 -1
BITMAP
FE
C6
C6
C6
C6
C6
C6
C6
ENDCHAR
STARTCHAR Ercyrillic
ENCODING 1056
SWIDTH 666 0
DWIDTH 8 0
BBX 7 8 1 -1
BITMAP
FC
C6
C6
C6
FC
C0
C0
C0
ENDCHAR
STARTCHAR Escyrillic
ENCODING 1057
SWIDTH 666 0
DWIDTH 8 0
BBX 7 8 1 -1
BITMAP
7C
C6
C0
C0
C0
C0
C6
7C
ENDCHAR
STARTCHAR Tecyrillic
ENCODING 1058
SWIDTH 666 0
DWIDTH 8 0
BBX 8 8 0 -1
BITMAP
FF
18
18
18
18
18
18
18
ENDCHAR
STARTCHAR Ucyrillic
ENCODING 1059
SWIDTH 666 0
DWIDTH 8 0
BBX 7 8 1 -1
BITMAP
C6
C6
C6
7E
06
06
C6
7C
ENDCHAR
STARTCHAR Efcyrillic
ENCODING 1060
SWIDTH 666 0
DWIDTH 8 0
BBX 8 9 0 -1
BITMAP
18
7E
DB
DB
DB
DB
7E
18
18
ENDCHAR
STARTCHAR Khacyrillic
ENCODING 1061
SWIDTH 666 0
DWIDTH 8 0
BBX 7 8 1 -1
BITMAP
C6
C6
6C
38
38
6C
C6
C6
ENDCHAR
STARTCHAR Tsecyrillic
ENCODING 1062
SWIDTH 666 0
DWIDTH 8 0
BBX 8 10 0 -3
BITMAP
C6
C6
C6
C6
C6
C6
C6
FF
03
03
ENDCHAR
STARTCHAR Checyrillic
ENCODING 1063
SWIDTH 666 0
DWIDTH 8 0
BBX 7 8 1 -1
BITMAP
C6
C6
C6
C6
7E
06
06
06
ENDCHAR
STARTCHAR Shacyrillic
ENCODING 1064
SWIDTH 666 0
DWIDTH 8 0
BBX 8 8 0 -1
BITMAP
DB
DB
DB
DB
DB
DB
DB
FF
ENDCHAR
STARTCHAR Shchacyrillic
ENCODING 1065
SWIDTH 666 0
DWIDTH 8 0
BBX 8 10 0 -3
BITMAP
DB
DB
DB
DB
DB
DB
DB
FF
03
03
ENDCHAR
STARTCHAR Hardsigncyrillic
ENCODING 1066
SWIDTH 666 0
DWIDTH 8 0
BBX 8 8 0 -1
BITMAP
E0
60
60
7E
63
63
63
7E
ENDCHAR
STARTCHAR Yericyrillic
ENCODING 1067
SWIDTH 666 0
DWIDTH 8 0
BBX 8 8 0 -1
BITMAP
C3
C3
C3
F3
DB
DB
DB
F3
ENDCHAR
STARTCHAR Softsigncyrillic
ENCODING 1068
SWIDTH 666 0
DWIDTH 8 0
BBX 7 8 1 -1
BITMAP
C0
C0
C0
FC
C6
C6
C6
FC
ENDCHAR
STARTCHAR Ereversedcyrillic
ENCODING 1069
SWIDTH 666 0
DWIDTH 8 0
BBX 7 8 1 -1
BITMAP
7C
C6
06
3E
06
06
C6
7C
ENDCHAR
STARTCHAR IUcyrillic
ENCODING 1070
SWIDTH 666 0
DWIDTH 8 0
BBX 8 8 0 -1
BITMAP
CE
DB
DB
FB
DB
DB
DB
CE
ENDCHAR
STARTCHAR IAcyrillic
ENCODING 1071
SWIDTH 666 0
DWIDTH 8 0
BBX 7 8 0 -1
BITMAP
3E
66
66
66
3E
36
66
C6
ENDCHAR
STARTCHAR acyrillic
ENCODING 1072
SWIDTH 666 0
DWIDTH 8 0
BBX 8 6 0 -1
BITMAP
3C
66
3E
66
CE
7B
ENDCHAR
STARTCHAR becyrillic
ENCODING 1073
SWIDTH 666 0
DWIDTH 8 0
BBX 7 9 1 -1
BITMAP
3E
7C
C0
FC
C6
C6
C6
C6
7C
ENDCHAR
STARTCHAR vecyrillic
ENCODING 1074
SWIDTH 666 0
DWIDTH 8 0
BBX 7 6 1 -1
BITMAP
F8
CC
FC
C6
C6
FC
ENDCHAR
STARTCHAR gecyrillic
ENCODING 1075
SWIDTH 666 0
DWIDTH 8 0
BBX 5 6 2 -1
BITMAP
F8
C0
C0
C0
C0
C0
ENDCHAR
STARTCHAR decyrillic
ENCODING 1076
SWIDTH 666 0
DWIDTH 8 0
BBX 8 8 0 -3
BITMAP
3C
66
66
66
66
FF
C3
C3
ENDCHAR
STARTCHAR iecyrillic
ENCODING 1077
SWIDTH 666 0
DWIDTH 8 0
BBX 7 6 1 -1
BITMAP
7C
C6
FE
C0
C6
7C
ENDCHAR
STARTCHAR zhecyrillic
ENCODING 1078
SWIDTH 666 0
DWIDTH 8 0
BBX 8 6 0 -1
BITMAP
DB
DB
7E
DB
DB
DB
ENDCHAR
STARTCHAR zecyrillic
ENCODING 1079
SWIDTH 666 0
DWIDTH 8 0
BBX 7 6 1 -1
BITMAP
7C
C6
1C
06
C6
7C
ENDCHAR
STARTCHAR iicyrillic
ENCODING 1080
SWIDTH 666 0
DWIDTH 8 0
BBX 7 6 1 -1
BITMAP
C6
CE
D6
E6
C6
C6
ENDCHAR
STARTCHAR iishortcyrillic
ENCODING 1081
SWIDTH 666 0
DWIDTH 8 0
BBX 7 8 1 -1
BITMAP
6C
38
C6
CE
D6
E6
C6
C6
ENDCHAR
STARTCHAR kacyrillic
ENCODING 1082
SWIDTH 666 0
DWIDTH 8 0
BBX 6 6 1 -1
BITMAP
CC
D8
F0
F0
D8
CC
ENDCHAR
STARTCHAR elcyrillic
ENCODING 1083
SWIDTH 666 0
DWIDTH 8 0
BBX 7 6 1 -1
BITMAP
3E
66
66
66
66
C6
ENDCHAR
STARTCHAR emcyrillic
ENCODING 1084
SWIDTH 666 0
DWIDTH 8 0
BBX 7 6 1 -1
BITMAP
C6
EE
FE
D6
C6
C6
ENDCHAR
STARTCHAR encyrillic
ENCODING 1085
SWIDTH 666 0
DWIDTH 8 0
BBX 7 6 1 -1
BITMAP
C6
C6
FE
C6
C6
C6
ENDCHAR
STARTCHAR ocyrillic
ENCODING 1086
SWIDTH 666 0
DWIDTH 8 0
BBX 7 6 1 -1
BITMAP
7C
C6
C6
C6
C6
7C
ENDCHAR
STARTCHAR pecyrillic
ENCODING 1087
SWIDTH 666 0
DWIDTH 8 0
BBX 7 6 1 -1
BITMAP
FE
C6
C6
C6
C6
C6
ENDCHAR
STARTCHAR ercyrillic
ENCODING 1088
SWIDTH 666 0
DWIDTH 8 0
BBX 7 8 1 -3
BITMAP
FC
C6
C6
C6
C6
FC
C0
C0
ENDCHAR
STARTCHAR escyrillic
ENCODING 1089
SWIDTH 666 0
DWIDTH 8 0
BBX 7 6 1 -1
BITMAP
7C
C6
C0
C0
C6
7C
ENDCHAR
STARTCHAR tecyrillic
ENCODING 1090
SWIDTH 666 0
DWIDTH 8 0
BBX 8 6 0 -1
BITMAP
FF
18
18
18
18
18
ENDCHAR
STARTCHAR ucyrillic
ENCODING 1091
SWIDTH 666 0
DWIDTH 8 0
BBX 7 8 1 -3
BITMAP
C6
C6
C6
C6
C6
7E
06
FC
ENDCHAR
STARTCHAR efcyrillic
ENCODING 1092
SWIDTH 666 0
DWIDTH 8 0
BBX 8 10 0 -3
BITMAP
18
18
7E
DB
DB
DB
DB
7E
18
18
ENDCHAR
STARTCHAR khacyrillic
ENCODING 1093
SWIDTH 666 0
DWIDTH 8 0
BBX 7 6 1 -1
BITMAP
C6
6C
38
38
6C
C6
ENDCHAR
STARTCHAR tsecyrillic
ENCODING 1094
SWIDTH 666 0
DWIDTH 8 0
BBX 7 8 0 -3
BITMAP
CC
CC
CC
CC
CC
FE
06
06
ENDCHAR
STARTCHAR checyrillic
ENCODING 1095
SWIDTH 666 0
DWIDTH 8 0
BBX 7 6 1 -1
BITMAP
C6
C6
C6
7E
06
06
ENDCHAR
STARTCHAR shacyrillic
ENCODING 1096
SWIDTH 666 0
DWIDTH 8 0
BBX 8 6 0 -1
BITMAP
DB
DB
DB
DB
DB
FF
ENDCHAR
STARTCHAR shchacyrillic
ENCODING 1097
SWIDTH 666 0
DWIDTH 8 0
BBX 8 8 0 -3
BITMAP
DB
DB
DB
DB
DB
FF
01
01
ENDCHAR
STARTCHAR hardsigncyrillic
ENCODING 1098
SWIDTH 666 0
DWIDTH 8 0
BBX 8 6 0 -1
BITMAP
E0
60
7E
63
63
7E
ENDCHAR
STARTCHAR yericyrillic
ENCODING 1099
SWIDTH 666 0
DWIDTH 8 0
BBX 7 6 1 -1
BITMAP
C6
C6
E6
D6
D6
E6
ENDCHAR
STARTCHAR softsigncyrillic
ENCODING 1100
SWIDTH 666 0
DWIDTH 8 0
BBX 6 6 1 -1
BITMAP
C0
C0
F8
CC
CC
F8
ENDCHAR
STARTCHAR ereversedcyrillic
ENCODING 1101
SWIDTH 666 0
DWIDTH 8 0
BBX 7 6 1 -1
BITMAP
7C
C6
3E
06
C6
7C
ENDCHAR
STARTCHAR iucyrillic
ENCODING 1102
SWIDTH 666 0
DWIDTH 8 0
BBX 8 6 0 -1
BITMAP
CE
DB
FB
DB
DB
CE
ENDCHAR
STARTCHAR iacyrillic
ENCODING 1103
SWIDTH 666 0
DWIDTH 8 0
BBX 7 6 1 -1
BITMAP
3E
66
66
3E
66
C6
ENDCHAR
STARTCHAR iocyrillic
ENCODING 1105
SWIDTH 666 0
DWIDTH 8 0
BBX 7 9 1 -1
BITMAP
6C
6C
00
7C
C6
FE
C0
C6
7C
ENDCHAR
STARTCHAR djecyrillic
ENCODING 1106
SWIDTH 666 0
DWIDTH 8 0
BBX 5 10 0 -2
BITMAP
40
40
F8
40
70
48
48
48
08
30
ENDCHAR
STARTCHAR gjecyrillic
ENCODING 1107
SWIDTH 666 0
DWIDTH 8 0
BBX 4 9 1 0
BITMAP
20
40
00
F0
80
80
80
80
80
ENDCHAR
STARTCHAR ecyrillic
ENCODING 1108
SWIDTH 666 0
DWIDTH 8 0
BBX 5 6 0 0
BITMAP
70
88
E0
80
88
70
ENDCHAR
STARTCHAR dzecyrillic
ENCODING 1109
SWIDTH 666 0
DWIDTH 8 0
BBX 5 6 0 0
BITMAP
70
80
70
08
88
70
ENDCHAR
STARTCHAR icyrillic
ENCODING 1110
SWIDTH 666 0
DWIDTH 8 0
BBX 1 8 2 0
BITMAP
80
00
80
80
80
80
80
80
ENDCHAR
STARTCHAR yicyrillic
ENCODING 1111
SWIDTH 666 0
DWIDTH 8 0
BBX 3 8 1 0
BITMAP
A0
00
40
40
40
40
40
40
ENDCHAR
STARTCHAR jecyrillic
ENCODING 1112
SWIDTH 666 0
DWIDTH 8 0
BBX 4 10 0 -2
BITMAP
10
00
10
10
10
10
10
10
90
60
ENDCHAR
STARTCHAR ljecyrillic
ENCODING 1113
SWIDTH 666 0
DWIDTH 8 0
BBX 6 6 0 0
BITMAP
30
50
58
54
54
98
ENDCHAR
STARTCHAR njecyrillic
ENCODING 1114
SWIDTH 666 0
DWIDTH 8 0
BBX 5 6 0 0
BITMAP
A0
A0
F0
A8
A8
B0
ENDCHAR
STARTCHAR tshecyrillic
ENCODING 1115
SWIDTH 666 0
DWIDTH 8 0
BBX 5 8 0 0
BITMAP
40
40
F0
40
70
48
48
48
ENDCHAR
STARTCHAR kjecyrillic
ENCODING 1116
SWIDTH 666 0
DWIDTH 8 0
BBX 5 9 0 0
BITMAP
10
20
00
88
90
A0
E0
90
88
ENDCHAR
STARTCHAR ushortcyrillic
ENCODING 1118
SWIDTH 666 0
DWIDTH 8 0
BBX 5 11 0 -2
BITMAP
50
20
00
88
88
88
88
88
78
08
F0
ENDCHAR
STARTCHAR dzhecyrillic
ENCODING 1119
SWIDTH 666 0
DWIDTH 8 0
BBX 5 8 0 -2
BITMAP
88
88
88
88
88
F8
20
20
ENDCHAR
STARTCHAR Gheupturncyrillic
ENCODING 1168
SWIDTH 666 0
DWIDTH 8 0
BBX 5 10 0 0
BITMAP
08
08
F8
80
80
80
80
80
80
80
ENDCHAR
STARTCHAR gheupturncyrillic
ENCODING 1169
SWIDTH 666 0
DWIDTH 8 0
BBX 4 8 1 0
BITMAP
10
10
F0
80
80
80
80
80
ENDCHAR
STARTCHAR endash
ENCODING 8211
SWIDTH 666 0
DWIDTH 8 0
BBX 3 1 0 2
BITMAP
E0
ENDCHAR
STARTCHAR emdash
ENCODING 8212
SWIDTH 666 0
DWIDTH 8 0
BBX 5 1 0 2
BITMAP
F8
ENDCHAR
STARTCHAR quoteleft
ENCODING 8216
SWIDTH 666 0
DWIDTH 8 0
BBX 2 4 2 4
BITMAP
40
80
C0
C0
ENDCHAR
STARTCHAR quoteright
ENCODING 8217
SWIDTH 666 0
DWIDTH 8 0
BBX 2 4 2 4
BITMAP
C0
C0
40
80
ENDCHAR
STARTCHAR quotesinglbase
ENCODING 8218
SWIDTH 666 0
DWIDTH 8 0
BBX 2 4 2 -2
BITMAP
C0
C0
40
80
ENDCHAR
STARTCHAR quotedblleft
ENCODING 8220
SWIDTH 666 0
DWIDTH 8 0
BBX 5 4 0 4
BITMAP
48
90
D8
D8
ENDCHAR
STARTCHAR quotedblright
ENCODING 8221
SWIDTH 666 0
DWIDTH 8 0
BBX 5 4 0 4
BITMAP
D8
D8
48
90
ENDCHAR
STARTCHAR quotedblbase
ENCODING 8222
SWIDTH 666 0
DWIDTH 8 0
BBX 5 4 0 -2
BITMAP
D8
D8
48
90
ENDCHAR
STARTCHAR dagger
ENCODING 8224
SWIDTH 666 0
DWIDTH 8 0
BBX 5 10 0 -2
BITMAP
20
20
F8
20
20
20
20
20
20
20
ENDCHAR
STARTCHAR daggerdbl
ENCODING 8225
SWIDTH 666 0
DWIDTH 8 0
BBX 5 10 0 -2
BITMAP
20
20
F8
20
20
20
20
F8
20
20
ENDCHAR
STARTCHAR bullet
ENCODING 8226
SWIDTH 666 0
DWIDTH 8 0
BBX 4 4 1 2
BITMAP
60
F0
F0
60
ENDCHAR
STARTCHAR ellipsis
ENCODING 8230
SWIDTH 666 0
DWIDTH 8 0
BBX 5 1 0 0
BITMAP
A8
ENDCHAR
STARTCHAR perthousand
ENCODING 8240
SWIDTH 666 0
DWIDTH 8 0
BBX 6 7 0 0
BITMAP
E0
A8
F0
20
7C
D4
7C
ENDCHAR
STARTCHAR guilsinglleft
ENCODING 8249
SWIDTH 666 0
DWIDTH 8 0
BBX 3 5 2 0
BITMAP
20
40
80
40
20
ENDCHAR
STARTCHAR guilsinglright
ENCODING 8250
SWIDTH 666 0
DWIDTH 8 0
BBX 3 5 1 0
BITMAP
80
40
20
40
80
ENDCHAR
STARTCHAR fraction
ENCODING 8260
SWIDTH 666 0
DWIDTH 8 0
BBX 6 10 0 -1
BITMAP
04
04
08
08
10
20
40
40
80
80
ENDCHAR
STARTCHAR Euro
ENCODING 8364
SWIDTH 666 0
DWIDTH 8 0
BBX 5 7 0 0
BITMAP
38
40
F0
40
F0
40
38
ENDCHAR
STARTCHAR numero
ENCODING 8470
SWIDTH 666 0
DWIDTH 8 0
BBX 8 8 0 0
BITMAP
D8
D8
F8
F8
DF
DD
DF
DF
ENDCHAR
STARTCHAR trademark
ENCODING 8482
SWIDTH 666 0
DWIDTH 8 0
BBX 6 4 0 4
BITMAP
F4
54
5C
54
ENDCHAR
STARTCHAR uni212F
ENCODING 8495
SWIDTH 666 0
DWIDTH 8 0
BBX 5 8 0 -2
BITMAP
88
88
88
88
88
F8
20
20
ENDCHAR
STARTCHAR Fturned
ENCODING 8498
SWIDTH 666 0
DWIDTH 8 0
BBX 5 11 0 -2
BITMAP
50
20
00
88
88
88
88
88
78
08
F0
ENDCHAR
STARTCHAR rightarrow.terminal.52
ENCODING 8594
SWIDTH 666 0
DWIDTH 8 0
BBX 6 5 0 0
BITMAP
10
08
FC
08
10
ENDCHAR
STARTCHAR downarrow.terminal.52
ENCODING 8595
SWIDTH 666 0
DWIDTH 8 0
BBX 5 6 1 0
BITMAP
20
20
20
A8
70
20
ENDCHAR
STARTCHAR partialdiff
ENCODING 8706
SWIDTH 666 0
DWIDTH 8 0
BBX 5 8 0 0
BITMAP
60
10
38
48
88
88
90
60
ENDCHAR
STARTCHAR product
ENCODING 8719
SWIDTH 666 0
DWIDTH 8 0
BBX 6 10 0 -2
BITMAP
FC
48
48
48
48
48
48
48
48
48
ENDCHAR
STARTCHAR summation
ENCODING 8721
SWIDTH 666 0
DWIDTH 8 0
BBX 5 10 0 -2
BITMAP
F8
80
40
40
20
20
40
40
80
F8
ENDCHAR
STARTCHAR radical
ENCODING 8730
SWIDTH 666 0
DWIDTH 8 0
BBX 6 10 0 -2
BITMAP
0C
08
08
08
10
D0
50
50
20
20
ENDCHAR
STARTCHAR infinity
ENCODING 8734
SWIDTH 666 0
DWIDTH 8 0
BBX 5 3 0 1
BITMAP
D8
A8
D8
ENDCHAR
STARTCHAR integral
ENCODING 8747
SWIDTH 666 0
DWIDTH 8 0
BBX 5 11 0 -2
BITMAP
10
28
20
20
20
20
20
20
20
A0
40
ENDCHAR
STARTCHAR approxequal
ENCODING 8776
SWIDTH 666 0
DWIDTH 8 0
BBX 5 4 0 1
BITMAP
60
98
60
98
ENDCHAR
STARTCHAR notequal
ENCODING 8800
SWIDTH 666 0
DWIDTH 8 0
BBX 5 5 0 0
BITMAP
08
F8
20
F8
80
ENDCHAR
STARTCHAR equivalence
ENCODING 8801
SWIDTH 666 0
DWIDTH 8 0
BBX 7 5 -1 1
BITMAP
FE
00
FE
00
FE
ENDCHAR
STARTCHAR lessequal
ENCODING 8804
SWIDTH 666 0
DWIDTH 8 0
BBX 5 7 0 0
BITMAP
08
30
C0
30
08
00
F8
ENDCHAR
STARTCHAR greaterequal
ENCODING 8805
SWIDTH 666 0
DWIDTH 8 0
BBX 5 7 0 0
BITMAP
80
60
18
60
80
00
F8
ENDCHAR
STARTCHAR H_T.terminal.100
ENCODING 9225
SWIDTH 666 0
DWIDTH 8 0
BBX 6 9 0 -1
BITMAP
A0
A0
E0
A0
A0
1C
08
08
08
ENDCHAR
STARTCHAR L_F.terminal.100
ENCODING 9226
SWIDTH 666 0
DWIDTH 8 0
BBX 6 9 0 -1
BITMAP
80
80
80
80
DC
10
1C
10
10
ENDCHAR
STARTCHAR V_T.terminal.100
ENCODING 9227
SWIDTH 666 0
DWIDTH 8 0
BBX 6 9 0 -1
BITMAP
A0
A0
40
40
00
1C
08
08
08
ENDCHAR
STARTCHAR F_F.terminal.100
ENCODING 9228
SWIDTH 666 0
DWIDTH 8 0
BBX 5 8 1 0
BITMAP
E0
80
C0
80
B8
20
30
20
ENDCHAR
STARTCHAR C_R.terminal.100
ENCODING 9229
SWIDTH 666 0
DWIDTH 8 0
BBX 6 8 0 0
BITMAP
60
80
80
60
18
14
18
14
ENDCHAR
STARTCHAR N_L.terminal.100
ENCODING 9252
SWIDTH 666 0
DWIDTH 8 0
BBX 6 9 0 -2
BITMAP
C8
A8
98
88
00
20
20
20
3C
ENDCHAR
STARTCHAR scanline5.terminal.100
ENCODING 9472
SWIDTH 666 0
DWIDTH 8 0
BBX 9 1 -1 2
BITMAP
FF80
ENDCHAR
STARTCHAR uni2501
ENCODING 9473
SWIDTH 666 0
DWIDTH 8 0
BBX 6 3 0 2
BITMAP
FC
00
FC
ENDCHAR
STARTCHAR boxelement.vert.terminal.100
ENCODING 9474
SWIDTH 666 0
DWIDTH 8 0
BBX 1 14 3 -3
BITMAP
80
80
80
80
80
80
80
80
80
80
80
80
80
80
ENDCHAR
STARTCHAR boxelement.ul.terminal.100
ENCODING 9484
SWIDTH 666 0
DWIDTH 8 0
BBX 5 6 3 -3
BITMAP
F8
80
80
80
80
80
ENDCHAR
STARTCHAR boxelement.ur.terminal.100
ENCODING 9488
SWIDTH 666 0
DWIDTH 8 0
BBX 5 6 -1 -3
BITMAP
F8
08
08
08
08
08
ENDCHAR
STARTCHAR boxelement.ll.terminal.100
ENCODING 9492
SWIDTH 666 0
DWIDTH 8 0
BBX 5 9 3 2
BITMAP
80
80
80
80
80
80
80
80
F8
ENDCHAR
STARTCHAR boxelement.lr.terminal.100
ENCODING 9496
SWIDTH 666 0
DWIDTH 8 0
BBX 5 9 -1 2
BITMAP
08
08
08
08
08
08
08
08
F8
ENDCHAR
STARTCHAR boxelement.ml.terminal.100
ENCODING 9500
SWIDTH 666 0
DWIDTH 8 0
BBX 5 14 3 -3
BITMAP
80
80
80
80
80
80
80
80
F8
80
80
80
80
80
ENDCHAR
STARTCHAR boxelement.mr.terminal.100
ENCODING 9508
SWIDTH 666 0
DWIDTH 8 0
BBX 4 14 0 -3
BITMAP
10
10
10
10
10
10
10
10
F0
10
10
10
10
10
ENDCHAR
STARTCHAR boxelement.mt.terminal.100
ENCODING 9516
SWIDTH 666 0
DWIDTH 8 0
BBX 9 6 -1 -3
BITMAP
FF80
0800
0800
0800
0800
0800
ENDCHAR
STARTCHAR boxelement.mb.terminal.100
ENCODING 9524
SWIDTH 666 0
DWIDTH 8 0
BBX 9 8 -1 2
BITMAP
0800
0800
0800
0800
0800
0800
0800
FF80
ENDCHAR
STARTCHAR boxelement.cross.terminal.100
ENCODING 9532
SWIDTH 666 0
DWIDTH 8 0
BBX 9 14 -1 -3
BITMAP
0800
0800
0800
0800
0800
0800
0800
0800
FF80
0800
0800
0800
0800
0800
ENDCHAR
STARTCHAR uni256D
ENCODING 9581
SWIDTH 666 0
DWIDTH 8 0
BBX 5 7 3 -4
BITMAP
78
80
80
80
80
80
80
ENDCHAR
STARTCHAR uni256E
ENCODING 9582
SWIDTH 666 0
DWIDTH 8 0
BBX 4 7 0 -4
BITMAP
E0
10
10
10
10
10
10
ENDCHAR
STARTCHAR uni256F
ENCODING 9583
SWIDTH 666 0
DWIDTH 8 0
BBX 4 9 0 2
BITMAP
10
10
10
10
10
10
10
10
E0
ENDCHAR
STARTCHAR uni2570
ENCODING 9584
SWIDTH 666 0
DWIDTH 8 0
BBX 5 9 3 2
BITMAP
80
80
80
80
80
80
80
80
78
ENDCHAR
STARTCHAR block.black.terminal.52
ENCODING 9608
SWIDTH 666 0
DWIDTH 8 0
BBX 8 11 0 -3
BITMAP
FF
FF
FF
FF
FF
FF
FF
FF
FF
FF
FF
ENDCHAR
STARTCHAR checkerboard.terminal.100
ENCODING 9618
SWIDTH 666 0
DWIDTH 8 0
BBX 8 11 0 -3
BITMAP
AA
55
AA
55
AA
55
AA
55
AA
55
AA
ENDCHAR
STARTCHAR lozenge.terminal.100
ENCODING 9670
SWIDTH 666 0
DWIDTH 8 0
BBX 7 7 0 0
BITMAP
10
38
7C
FE
7C
38
10
ENDCHAR
STARTCHAR lozenge
ENCODING 9674
SWIDTH 666 0
DWIDTH 8 0
BBX 7 9 0 -1
BITMAP
10
28
28
44
82
44
28
28
10
ENDCHAR
STARTCHAR sun
ENCODING 9788
SWIDTH 666 0
DWIDTH 8 0
BBX 7 7 1 -1
BITMAP
92
7C
44
C6
44
7C
92
ENDCHAR
STARTCHAR uniE0A0
ENCODING 57504
SWIDTH 666 0
DWIDTH 8 0
BBX 7 11 0 -2
BITMAP
C0
C0
CC
DE
CC
D8
B0
60
C0
C0
C0
ENDCHAR
STARTCHAR uniE0A1
ENCODING 57505
SWIDTH 666 0
DWIDTH 8 0
BBX 8 9 0 -1
BITMAP
C0
C0
C0
F8
00
33
3B
37
33
ENDCHAR
STARTCHAR uniE0A2
ENCODING 57506
SWIDTH 666 0
DWIDTH 8 0
BBX 7 10 0 0
BITMAP
38
44
44
44
FE
EE
C6
EE
EE
78
ENDCHAR
STARTCHAR uniE0B0
ENCODING 57520
SWIDTH 666 0
DWIDTH 8 0
BBX 6 12 0 -3
BITMAP
80
C0
E0
F0
F8
FC
FC
F8
F0
E0
C0
80
ENDCHAR
STARTCHAR uniE0B1
ENCODING 57521
SWIDTH 666 0
DWIDTH 8 0
BBX 6 12 0 -3
BITMAP
80
40
20
10
08
04
04
08
10
20
40
80
ENDCHAR
STARTCHAR uniE0B2
ENCODING 57522
SWIDTH 666 0
DWIDTH 8 0
BBX 6 12 2 -3
BITMAP
04
0C
1C
3C
7C
FC
FC
7C
3C
1C
0C
04
ENDCHAR
STARTCHAR uniE0B3
ENCODING 57523
SWIDTH 666 0
DWIDTH 8 0
BBX 6 12 2 -3
BITMAP
04
08
10
20
40
80
80
40
20
10
08
04
ENDCHAR
STARTCHAR fi
ENCODING 64257
SWIDTH 666 0
DWIDTH 8 0
BBX 5 8 0 0
BITMAP
38
40
40
F8
48
48
48
48
ENDCHAR
STARTCHAR fl
ENCODING 64258
SWIDTH 666 0
DWIDTH 8 0
BBX 5 8 0 0
BITMAP
38
48
48
E8
48
48
48
48
ENDCHAR
ENDFONT
